<svg data-v-423bf9ae="" xmlns="http://www.w3.org/2000/svg" viewBox="0 0 286.13825285587654 60" class="font"><!----><!----><defs data-v-423bf9ae=""><linearGradient data-v-423bf9ae="" gradientTransform="rotate(25)" id="2c60639c-3a01-47aa-8d7a-b3063f19f73a" x1="0%" y1="0%" x2="100%" y2="0%"><stop data-v-423bf9ae="" offset="0%" style="stop-color: rgb(2, 24, 2); stop-opacity: 1;"></stop><stop data-v-423bf9ae="" offset="100%" style="stop-color: rgb(96, 219, 204); stop-opacity: 1;"></stop></linearGradient></defs><g data-v-423bf9ae="" id="21cd744c-cbf7-46c3-a07e-38399bc330de" fill="url(#2c60639c-3a01-47aa-8d7a-b3063f19f73a)" transform="matrix(5.059021662075736,0,0,5.059021662075736,-0.5564894748511335,-6.070826950979573)"><path d="M0.11 1.36L7.17 1.36L7.17 2.88L4.62 2.88L4.62 10.50L2.67 10.50L2.67 2.88L0.11 2.88L0.11 1.36ZM11.56 3.18L11.56 5.10Q11.24 5.03 10.98 5.02Q10.72 5.01 10.50 5.03L10.50 5.03Q10.05 5.05 9.77 5.22Q9.48 5.39 9.32 5.66Q9.17 5.94 9.11 6.28Q9.06 6.62 9.06 6.99L9.06 6.99L9.06 10.50L7.17 10.50L7.17 3.36L8.55 3.36L8.85 4.93Q8.85 4.93 8.88 4.77Q8.92 4.61 9.02 4.38Q9.13 4.14 9.32 3.88Q9.52 3.63 9.82 3.43Q10.12 3.23 10.55 3.15Q10.98 3.07 11.56 3.18L11.56 3.18ZM15.48 3.12L15.48 3.12Q15.95 3.12 16.48 3.27Q17.01 3.42 17.47 3.75Q17.93 4.07 18.23 4.59Q18.52 5.11 18.51 5.85L18.51 5.85L18.51 10.50L17.14 10.50Q17.14 10.50 17.09 10.33Q17.05 10.16 17.00 9.95Q16.95 9.74 16.91 9.58Q16.87 9.42 16.87 9.44L16.87 9.44Q16.67 9.79 16.35 10.05L16.35 10.05Q16.07 10.29 15.63 10.47Q15.19 10.65 14.55 10.65L14.55 10.65Q14.10 10.65 13.66 10.52Q13.23 10.39 12.89 10.13Q12.54 9.87 12.33 9.48Q12.11 9.09 12.10 8.57L12.10 8.57Q12.07 8.02 12.24 7.59Q12.42 7.17 12.75 6.86Q13.08 6.55 13.54 6.36Q14.00 6.17 14.55 6.10L14.55 6.10Q15.06 6.03 15.68 6.03Q16.30 6.03 16.79 6.06L16.79 6.06L16.79 5.84Q16.79 5.24 16.52 4.93Q16.25 4.63 15.86 4.54Q15.46 4.45 14.98 4.52Q14.50 4.59 14.07 4.72Q13.64 4.86 13.31 5.00Q12.98 5.15 12.89 5.22L12.89 5.22L12.89 3.81Q12.91 3.79 13.15 3.69Q13.38 3.58 13.75 3.46Q14.11 3.33 14.57 3.23Q15.02 3.12 15.48 3.12ZM16.38 8.68L16.38 8.68Q16.62 8.37 16.70 7.99Q16.77 7.62 16.77 7.20L16.77 7.20L15.96 7.20Q15.64 7.20 15.27 7.24Q14.91 7.28 14.60 7.41Q14.29 7.53 14.08 7.78Q13.87 8.02 13.87 8.44L13.87 8.44Q13.87 8.90 14.22 9.11Q14.56 9.32 15.06 9.32L15.06 9.32Q15.50 9.32 15.83 9.15Q16.16 8.97 16.38 8.68ZM23.56 3.12L23.56 3.12Q24.00 3.12 24.33 3.18Q24.67 3.23 24.91 3.30L24.91 3.30Q25.17 3.39 25.40 3.49L25.40 3.49L25.40 4.82Q24.85 4.65 24.21 4.59Q23.58 4.54 23.03 4.74Q22.48 4.94 22.12 5.45Q21.76 5.95 21.76 6.89L21.76 6.89Q21.76 7.87 22.12 8.38Q22.48 8.89 23.03 9.06Q23.58 9.24 24.21 9.15Q24.85 9.06 25.40 8.85L25.40 8.85L25.40 10.23Q25.19 10.36 24.91 10.44L24.91 10.44Q24.67 10.53 24.33 10.59Q23.98 10.65 23.55 10.65L23.55 10.65Q23.00 10.65 22.34 10.51Q21.69 10.37 21.12 9.97Q20.55 9.56 20.17 8.83Q19.80 8.09 19.80 6.89L19.80 6.89Q19.80 5.70 20.17 4.96Q20.55 4.21 21.12 3.81Q21.69 3.40 22.34 3.26Q23.00 3.12 23.56 3.12ZM33.10 3.29L30.52 6.99Q30.81 7.39 31.15 7.84Q31.49 8.29 31.83 8.75Q32.17 9.21 32.50 9.66Q32.83 10.11 33.12 10.50L33.12 10.50L30.97 10.50L29.04 7.76L28.62 7.76L28.62 10.50L26.74 10.50L26.74 1.55L28.62 1.55L28.62 6.19L29.02 6.19Q29.02 6.19 29.17 5.97Q29.32 5.75 29.53 5.43Q29.75 5.11 30.00 4.74Q30.25 4.37 30.46 4.05Q30.67 3.72 30.82 3.51Q30.97 3.29 30.97 3.29L30.97 3.29L33.10 3.29ZM38.36 1.20L38.36 1.20Q39.06 1.20 39.84 1.41Q40.63 1.61 41.29 2.14Q41.96 2.67 42.39 3.59Q42.83 4.51 42.83 5.94L42.83 5.94Q42.83 7.38 42.39 8.29Q41.96 9.21 41.29 9.74Q40.63 10.26 39.84 10.46Q39.06 10.65 38.36 10.65L38.36 10.65Q37.66 10.65 36.87 10.46Q36.08 10.26 35.41 9.74Q34.75 9.21 34.31 8.29Q33.87 7.38 33.87 5.94L33.87 5.94Q33.87 4.51 34.31 3.59Q34.75 2.67 35.41 2.14Q36.08 1.61 36.87 1.41Q37.66 1.20 38.36 1.20ZM38.36 9.13L38.36 9.13Q38.92 9.13 39.37 8.95Q39.82 8.76 40.13 8.38Q40.45 7.99 40.61 7.39Q40.78 6.79 40.78 5.94L40.78 5.94Q40.78 5.10 40.61 4.49Q40.45 3.89 40.13 3.51Q39.82 3.12 39.37 2.93Q38.92 2.74 38.36 2.74L38.36 2.74Q37.24 2.74 36.58 3.51Q35.91 4.27 35.91 5.94L35.91 5.94Q35.91 6.79 36.09 7.39Q36.26 7.99 36.58 8.38Q36.90 8.76 37.35 8.95Q37.80 9.13 38.36 9.13ZM48.89 3.18L48.89 5.10Q48.57 5.03 48.31 5.02Q48.05 5.01 47.82 5.03L47.82 5.03Q47.38 5.05 47.09 5.22Q46.80 5.39 46.65 5.66Q46.49 5.94 46.44 6.28Q46.38 6.62 46.38 6.99L46.38 6.99L46.38 10.50L44.49 10.50L44.49 3.36L45.88 3.36L46.17 4.93Q46.17 4.93 46.21 4.77Q46.24 4.61 46.35 4.38Q46.45 4.14 46.65 3.88Q46.84 3.63 47.15 3.43Q47.45 3.23 47.87 3.15Q48.30 3.07 48.89 3.18L48.89 3.18ZM55.20 3.29L56.67 3.29L56.67 9.63Q56.67 10.32 56.46 10.93Q56.24 11.54 55.77 12.01Q55.30 12.47 54.57 12.76Q53.84 13.05 52.82 13.06L52.82 13.06Q52.28 13.06 51.83 12.98Q51.38 12.91 51.06 12.81L51.06 12.81Q50.68 12.70 50.37 12.54L50.37 12.54L50.51 11.05Q50.82 11.20 51.18 11.33L51.18 11.33Q51.51 11.44 51.92 11.52Q52.33 11.59 52.82 11.59L52.82 11.59Q53.41 11.59 53.78 11.43Q54.15 11.27 54.37 11.03Q54.59 10.78 54.68 10.50Q54.78 10.22 54.80 9.97Q54.82 9.73 54.81 9.56Q54.80 9.39 54.80 9.39L54.80 9.39Q54.80 9.39 54.68 9.56Q54.57 9.73 54.32 9.94Q54.07 10.15 53.66 10.32Q53.26 10.50 52.67 10.50L52.67 10.50Q52.04 10.50 51.48 10.31Q50.92 10.12 50.50 9.68Q50.08 9.24 49.83 8.53Q49.59 7.81 49.59 6.78L49.59 6.78Q49.59 5.74 49.90 5.04Q50.20 4.34 50.67 3.91Q51.13 3.49 51.67 3.30Q52.21 3.12 52.67 3.12L52.67 3.12Q53.21 3.12 53.62 3.28Q54.03 3.44 54.29 3.64Q54.54 3.84 54.68 4.00Q54.81 4.16 54.81 4.16L54.81 4.16L55.20 3.29ZM54.80 6.82L54.80 6.82Q54.80 5.68 54.35 5.13Q53.90 4.58 53.17 4.58L53.17 4.58Q52.44 4.58 52.00 5.13Q51.55 5.68 51.55 6.82L51.55 6.82Q51.55 7.95 52.00 8.50Q52.44 9.04 53.17 9.04L53.17 9.04Q53.90 9.04 54.35 8.50Q54.80 7.95 54.80 6.82Z"></path></g><!----><!----></svg>